Ruda-Regular.ufo
<glyph name="quotedbl" format="2">
  <advance width="339"/>
  <unicode hex="0022"/>
  <outline>
    <contour>
      <point x="213" y="478" type="line"/>
      <point x="266" y="478" type="line"/>
      <point x="283" y="694" type="line"/>
      <point x="283" y="713" type="line"/>
      <point x="199" y="713" type="line"/>
      <point x="199" y="695" type="line"/>
    </contour>
    <contour>
      <point x="70" y="478" type="line"/>
      <point x="123" y="478" type="line"/>
      <point x="139" y="694" type="line"/>
      <point x="139" y="713" type="line"/>
      <point x="56" y="713" type="line"/>
      <point x="56" y="695" type="line"/>
    </contour>
  </outline>
</glyph>
<glyph name="one" format="2">
  <advance width="507"/>
  <unicode hex="0031"/>
  <outline>
    <contour>
      <point x="77" y="0" type="line"/>
      <point x="476" y="0" type="line"/>
      <point x="476" y="72" type="line"/>
      <point x="329" y="70" type="line"/>
      <point x="329" y="695" type="line"/>
      <point x="239" y="702" type="line"/>
      <point x="43" y="518" type="line"/>
      <point x="99" y="464" type="line"/>
      <point x="246" y="619" type="line"/>
      <point x="251" y="619" type="line"/>
      <point x="244" y="70" type="line"/>
      <point x="77" y="72" type="line"/>
    </contour>
  </outline>
</glyph>
<glyph name="two" format="2">
  <advance width="540"/>
  <unicode hex="0032"/>
  <outline>
    <contour>
      <point x="56" y="0" type="line"/>
      <point x="476" y="0" type="line"/>
      <point x="476" y="75" type="line"/>
      <point x="178" y="70" type="line"/>
      <point x="178" y="75" type="line"/>
      <point x="178" y="75"/>
      <point x="307" y="239"/>
      <point x="344" y="288" type="curve" smooth="yes"/>
      <point x="401" y="363"/>
      <point x="461" y="453"/>
      <point x="461" y="539" type="curve" smooth="yes"/>
      <point x="461" y="640"/>
      <point x="379" y="708"/>
      <point x="268" y="708" type="curve" smooth="yes"/>
      <point x="171" y="708"/>
      <point x="82" y="656"/>
      <point x="51" y="628" type="curve"/>
      <point x="86" y="565" type="line"/>
      <point x="143" y="602"/>
      <point x="223" y="633"/>
      <point x="287" y="633" type="curve" smooth="yes"/>
      <point x="355" y="633"/>
      <point x="379" y="598"/>
      <point x="379" y="548" type="curve" smooth="yes"/>
      <point x="379" y="470"/>
      <point x="320" y="392"/>
      <point x="236" y="285" type="curve" smooth="yes"/>
      <point x="118" y="135"/>
      <point x="56" y="65"/>
      <point x="56" y="65" type="curve"/>
    </contour>
  </outline>
</glyph>
<glyph name="question" format="2">
  <advance width="462"/>
  <unicode hex="003F"/>
  <outline>
    <contour>
      <point x="150" y="191" type="line"/>
      <point x="220" y="191" type="line"/>
      <point x="220" y="262"/>
      <point x="268" y="297"/>
      <point x="318" y="335" type="curve" smooth="yes"/>
      <point x="374" y="377"/>
      <point x="432" y="423"/>
      <point x="432" y="525" type="curve" smooth="yes"/>
      <point x="432" y="631"/>
      <point x="351" y="708"/>
      <point x="233" y="708" type="curve" smooth="yes"/>
      <point x="132" y="708"/>
      <point x="64" y="664"/>
      <point x="31" y="645" type="curve"/>
      <point x="61" y="577" type="line"/>
      <point x="112" y="604"/>
      <point x="173" y="631"/>
      <point x="249" y="631" type="curve" smooth="yes"/>
      <point x="280" y="631"/>
      <point x="300" y="622"/>
      <point x="305" y="618" type="curve" smooth="yes"/>
      <point x="327" y="604"/>
      <point x="345" y="578"/>
      <point x="345" y="533" type="curve" smooth="yes"/>
      <point x="345" y="455"/>
      <point x="298" y="421"/>
      <point x="251" y="385" type="curve" smooth="yes"/>
      <point x="201" y="346"/>
      <point x="150" y="304"/>
      <point x="150" y="201" type="curve" smooth="yes"/>
    </contour>
    <contour>
      <point x="132" y="0" type="line"/>
      <point x="240" y="0" type="line"/>
      <point x="240" y="89" type="line"/>
      <point x="132" y="89" type="line"/>
    </contour>
  </outline>
</glyph>
<glyph name="A" format="2">
  <advance width="506"/>
  <unicode hex="0041"/>
  <anchor x="258" y="0" name="bottom"/>
  <anchor x="501" y="10" name="ogonek"/>
  <anchor x="253" y="695" name="top"/>
  <outline>
    <contour>
      <point x="-33" y="0" type="line"/>
      <point x="129" y="0" type="line"/>
      <point x="81" y="-37" type="line"/>
      <point x="144" y="208" type="line"/>
      <point x="104" y="184" type="line"/>
      <point x="404" y="184" type="line"/>
      <point x="362" y="208" type="line"/>
      <point x="425" y="-37" type="line"/>
      <point x="378" y="0" type="line"/>
      <point x="540" y="0" type="line"/>
      <point x="511" y="-36" type="line"/>
      <point x="302" y="731" type="line"/>
      <point x="350" y="695" type="line"/>
      <point x="156" y="695" type="line"/>
      <point x="204" y="731" type="line"/>
      <point x="-5" y="-36" type="line"/>
    </contour>
    <contour>
      <point x="146" y="219" type="line"/>
      <point x="259" y="658" type="line"/>
      <point x="212" y="621" type="line"/>
      <point x="294" y="621" type="line"/>
      <point x="247" y="658" type="line"/>
      <point x="360" y="219" type="line"/>
      <point x="388" y="258" type="line"/>
      <point x="118" y="258" type="line"/>
    </contour>
  </outline>
</glyph>
<glyph name="K" format="2">
  <advance width="577"/>
  <unicode hex="004B"/>
  <anchor x="303" y="0" name="bottom"/>
  <anchor x="299" y="695" name="top"/>
  <outline>
    <contour>
      <point x="485" y="0" type="line"/>
      <point x="597" y="0" type="line"/>
      <point x="285" y="365" type="line"/>
      <point x="291" y="346" type="line"/>
      <point x="291" y="385" type="line"/>
      <point x="278" y="348" type="line"/>
      <point x="566" y="695" type="line"/>
      <point x="460" y="695" type="line"/>
      <point x="169" y="328" type="line"/>
      <point x="168" y="386" type="line"/>
    </contour>
    <contour>
      <point x="105" y="0" type="line"/>
      <point x="189" y="0" type="line"/>
      <point x="189" y="695" type="line"/>
      <point x="105" y="695" type="line"/>
      <point x="108" y="353" type="line"/>
    </contour>
  </outline>
</glyph>
<glyph name="S" format="2">
  <advance width="511"/>
  <unicode hex="0053"/>
  <anchor x="256" y="0" name="bottom"/>
  <anchor x="256" y="695" name="top"/>
  <outline>
    <contour>
      <point x="246" y="-14" type="curve" smooth="yes"/>
      <point x="370" y="-14"/>
      <point x="455" y="67"/>
      <point x="455" y="189" type="curve" smooth="yes"/>
      <point x="455" y="318"/>
      <point x="373" y="358"/>
      <point x="293" y="391" type="curve" smooth="yes"/>
      <point x="217" y="422"/>
      <point x="145" y="450"/>
      <point x="145" y="533" type="curve" smooth="yes"/>
      <point x="145" y="582"/>
      <point x="163" y="610"/>
      <point x="181" y="620" type="curve" smooth="yes"/>
      <point x="196" y="629"/>
      <point x="212" y="633"/>
      <point x="246" y="633" type="curve" smooth="yes"/>
      <point x="329" y="633"/>
      <point x="413" y="615"/>
      <point x="413" y="615" type="curve"/>
      <point x="427" y="687" type="line"/>
      <point x="427" y="687"/>
      <point x="351" y="709"/>
      <point x="264" y="709" type="curve" smooth="yes"/>
      <point x="127" y="709"/>
      <point x="58" y="628"/>
      <point x="58" y="525" type="curve" smooth="yes"/>
      <point x="58" y="392"/>
      <point x="145" y="358"/>
      <point x="252" y="313" type="curve" smooth="yes"/>
      <point x="314" y="287"/>
      <point x="368" y="253"/>
      <point x="368" y="178" type="curve" smooth="yes"/>
      <point x="368" y="126"/>
      <point x="352" y="94"/>
      <point x="326" y="76" type="curve" smooth="yes"/>
      <point x="318" y="71"/>
      <point x="299" y="63"/>
      <point x="266" y="63" type="curve" smooth="yes"/>
      <point x="162" y="63"/>
      <point x="66" y="118"/>
      <point x="66" y="118" type="curve"/>
      <point x="66" y="119"/>
      <point x="36" y="50"/>
      <point x="36" y="50" type="curve"/>
      <point x="36" y="50"/>
      <point x="136" y="-14"/>
    </contour>
  </outline>
</glyph>
<glyph name="n" format="2">
  <advance width="601"/>
  <unicode hex="006E"/>
  <anchor x="321" y="0" name="bottom"/>
  <anchor x="301" y="582" name="top"/>
  <outline>
    <contour>
      <point x="101" y="0" type="line"/>
      <point x="184" y="0" type="line"/>
      <point x="184" y="501" type="line"/>
      <point x="181" y="461" type="line"/>
      <point x="177" y="459"/>
      <point x="277" y="516"/>
      <point x="360" y="516" type="curve" smooth="yes"/>
      <point x="383" y="516"/>
      <point x="404" y="512"/>
      <point x="415" y="495" type="curve" smooth="yes"/>
      <point x="429" y="474"/>
      <point x="430" y="437"/>
      <point x="430" y="358" type="curve" smooth="yes"/>
      <point x="430" y="0" type="line"/>
      <point x="513" y="0" type="line"/>
      <point x="513" y="387" type="line" smooth="yes"/>
      <point x="513" y="505"/>
      <point x="489" y="595"/>
      <point x="379" y="595" type="curve" smooth="yes"/>
      <point x="282" y="595"/>
      <point x="173" y="526"/>
      <point x="166" y="522" type="curve"/>
      <point x="209" y="525" type="line"/>
      <point x="128" y="525" type="line"/>
      <point x="172" y="488" type="line"/>
      <point x="157" y="582" type="line"/>
      <point x="101" y="582" type="line"/>
    </contour>
  </outline>
</glyph>
<glyph name="guillemotleft" format="2">
  <advance width="460"/>
  <unicode hex="00AB"/>
  <outline>
    <contour>
      <point x="181" y="88" type="line"/>
      <point x="243" y="127" type="line"/>
      <point x="121" y="327" type="line"/>
      <point x="121" y="334" type="line"/>
      <point x="243" y="534" type="line"/>
      <point x="181" y="572" type="line"/>
      <point x="40" y="330" type="line"/>
    </contour>
    <contour>
      <point x="360" y="88" type="line"/>
      <point x="421" y="127" type="line"/>
      <point x="300" y="327" type="line"/>
      <point x="300" y="334" type="line"/>
      <point x="421" y="534" type="line"/>
      <point x="360" y="572" type="line"/>
      <point x="219" y="330" type="line"/>
    </contour>
  </outline>
</glyph>
<glyph name="uni00AD" format="2">
  <advance width="389"/>
  <unicode hex="00AD"/>
  <outline>
    <contour>
      <point x="80" y="258" type="line"/>
      <point x="309" y="258" type="line"/>
      <point x="309" y="329" type="line"/>
      <point x="80" y="329" type="line"/>
    </contour>
  </outline>
</glyph>
<glyph name="macron" format="2">
  <advance width="320"/>
  <unicode hex="00AF"/>
  <outline>
    <contour>
      <point x="0" y="690" type="line"/>
      <point x="320" y="690" type="line"/>
      <point x="320" y="755" type="line"/>
      <point x="0" y="755" type="line"/>
    </contour>
  </outline>
</glyph>
<glyph name="guillemotright" format="2">
  <advance width="460"/>
  <unicode hex="00BB"/>
  <outline>
    <contour>
      <point x="101" y="88" type="line"/>
      <point x="242" y="330" type="line"/>
      <point x="101" y="572" type="line"/>
      <point x="39" y="534" type="line"/>
      <point x="161" y="334" type="line"/>
      <point x="161" y="327" type="line"/>
      <point x="39" y="127" type="line"/>
    </contour>
    <contour>
      <point x="279" y="88" type="line"/>
      <point x="420" y="330" type="line"/>
      <point x="279" y="572" type="line"/>
      <point x="218" y="534" type="line"/>
      <point x="339" y="334" type="line"/>
      <point x="339" y="327" type="line"/>
      <point x="218" y="127" type="line"/>
    </contour>
  </outline>
</glyph>
<glyph name="Igrave" format="2">
  <advance width="295"/>
  <unicode hex="00CC"/>
  <outline>
    <contour>
      <point x="227" y="736" type="line"/>
      <point x="247" y="789" type="line"/>
      <point x="33" y="868" type="line"/>
      <point x="7" y="795" type="line"/>
    </contour>
    <component base="I"/>
  </outline>
</glyph>
<glyph name="Eth" format="2">
  <advance width="643"/>
  <unicode hex="00D0"/>
  <outline>
    <contour>
      <point x="52" y="321" type="line"/>
      <point x="308" y="321" type="line"/>
      <point x="308" y="391" type="line"/>
      <point x="52" y="391" type="line"/>
    </contour>
    <component base="D" xOffset="12"/>
  </outline>
</glyph>
<glyph name="Imacron" format="2">
  <advance width="295"/>
  <unicode hex="012A"/>
  <outline>
    <contour>
      <point x="26" y="752" type="line"/>
      <point x="270" y="752" type="line"/>
      <point x="270" y="812" type="line"/>
      <point x="26" y="812" type="line"/>
    </contour>
    <component base="I"/>
  </outline>
</glyph>
<glyph name="jcircumflex" format="2">
  <advance width="336"/>
  <unicode hex="0135"/>
  <outline>
    <contour>
      <point x="65" y="660" type="line"/>
      <point x="169" y="730" type="line"/>
      <point x="177" y="730" type="line"/>
      <point x="281" y="660" type="line"/>
      <point x="313" y="693" type="line"/>
      <point x="199" y="802" type="line"/>
      <point x="146" y="802" type="line"/>
      <point x="32" y="693" type="line"/>
    </contour>
    <component base="dotlessj" xOffset="12"/>
  </outline>
</glyph>
<glyph name="circumflex" format="2">
  <advance width="293"/>
  <unicode hex="02C6"/>
  <outline>
    <contour>
      <point x="29" y="659" type="line"/>
      <point x="143" y="730" type="line"/>
      <point x="150" y="730" type="line"/>
      <point x="264" y="659" type="line"/>
      <point x="293" y="693" type="line"/>
      <point x="172" y="802" type="line"/>
      <point x="121" y="802" type="line"/>
      <point x="0" y="693" type="line"/>
    </contour>
  </outline>
</glyph>
<glyph name="tilde" format="2">
  <advance width="306"/>
  <unicode hex="02DC"/>
  <outline>
    <contour>
      <point x="234" y="675" type="curve" smooth="yes"/>
      <point x="280" y="675"/>
      <point x="306" y="701"/>
      <point x="306" y="776" type="curve"/>
      <point x="253" y="783" type="line"/>
      <point x="253" y="783"/>
      <point x="238" y="738"/>
      <point x="225" y="738" type="curve" smooth="yes"/>
      <point x="205" y="738"/>
      <point x="118" y="786"/>
      <point x="73" y="786" type="curve" smooth="yes"/>
      <point x="27" y="786"/>
      <point x="0" y="761"/>
      <point x="0" y="685" type="curve"/>
      <point x="52" y="679" type="line"/>
      <point x="52" y="679"/>
      <point x="66" y="725"/>
      <point x="79" y="725" type="curve" smooth="yes"/>
      <point x="98" y="725"/>
      <point x="190" y="675"/>
    </contour>
  </outline>
</glyph>
<glyph name="hookabovecomb" format="2">
  <unicode hex="0309"/>
  <outline>
    <contour>
      <point x="0" y="799" type="line"/>
      <point x="55" y="799" type="line" smooth="yes"/>
      <point x="75" y="799"/>
      <point x="82" y="791"/>
      <point x="82" y="774" type="curve" smooth="yes"/>
      <point x="82" y="755"/>
      <point x="68" y="738"/>
      <point x="25" y="700" type="curve"/>
      <point x="58" y="671" type="line"/>
      <point x="118" y="708"/>
      <point x="142" y="739"/>
      <point x="142" y="783" type="curve" smooth="yes"/>
      <point x="142" y="824"/>
      <point x="113" y="857"/>
      <point x="51" y="857" type="curve" smooth="yes"/>
      <point x="33" y="857"/>
      <point x="2" y="856"/>
      <point x="0" y="853" type="curve"/>
    </contour>
  </outline>
</glyph>
<glyph name="Dje-cy" format="2">
  <advance width="717"/>
  <unicode hex="0402"/>
  <guideline x="1054" y="440" angle="0"/>
  <outline>
    <contour>
      <point x="540" y="233" type="curve" smooth="yes"/>
      <point x="540" y="91" type="line"/>
      <point x="624" y="91" type="line"/>
      <point x="624" y="229" type="line" smooth="yes"/>
      <point x="624" y="366"/>
      <point x="594" y="447"/>
      <point x="453" y="447" type="curve" smooth="yes"/>
      <point x="388" y="447"/>
      <point x="308" y="423"/>
      <point x="255" y="408" type="curve"/>
      <point x="255" y="695" type="line"/>
      <point x="171" y="695" type="line"/>
      <point x="171" y="0" type="line"/>
      <point x="255" y="0" type="line"/>
      <point x="255" y="333" type="line"/>
      <point x="293" y="347"/>
      <point x="378" y="369"/>
      <point x="441" y="369" type="curve" smooth="yes"/>
      <point x="465" y="369"/>
      <point x="500" y="371"/>
      <point x="522" y="349" type="curve" smooth="yes"/>
      <point x="538" y="333"/>
      <point x="540" y="298"/>
    </contour>
    <contour>
      <point x="461" y="-138" type="curve" smooth="yes"/>
      <point x="552" y="-138"/>
      <point x="624" y="-80"/>
      <point x="624" y="94" type="curve" smooth="yes"/>
      <point x="624" y="100"/>
      <point x="624" y="105"/>
      <point x="624" y="111" type="curve"/>
      <point x="540" y="120" type="line"/>
      <point x="540" y="116"/>
      <point x="540" y="91"/>
      <point x="540" y="87" type="curve" smooth="yes"/>
      <point x="540" y="-52"/>
      <point x="517" y="-65"/>
      <point x="477" y="-65" type="curve" smooth="yes"/>
      <point x="454" y="-65"/>
      <point x="413" y="-61"/>
      <point x="405" y="-59" type="curve"/>
      <point x="395" y="-131" type="line"/>
      <point x="395" y="-131"/>
      <point x="441" y="-138"/>
    </contour>
    <contour>
      <point x="3" y="621" type="line"/>
      <point x="192" y="623" type="line"/>
      <point x="428" y="621" type="line"/>
      <point x="428" y="695" type="line"/>
      <point x="3" y="695" type="line"/>
    </contour>
  </outline>
</glyph>
<glyph name="Ii-cy" format="2">
  <advance width="690"/>
  <unicode hex="0418"/>
  <anchor x="668" y="0" name="bottomright"/>
  <anchor x="334" y="695" name="top"/>
  <outline>
    <contour>
      <point x="181" y="0" type="line"/>
      <point x="202" y="0" type="line"/>
      <point x="502" y="616" type="line"/>
      <point x="523" y="616" type="line"/>
      <point x="523" y="695" type="line"/>
      <point x="459" y="695" type="line"/>
      <point x="161" y="86" type="line"/>
      <point x="152" y="86" type="line"/>
    </contour>
    <contour>
      <point x="105" y="0" type="line"/>
      <point x="189" y="0" type="line"/>
      <point x="186" y="329" type="line"/>
      <point x="189" y="695" type="line"/>
      <point x="105" y="695" type="line"/>
    </contour>
    <contour>
      <point x="501" y="0" type="line"/>
      <point x="585" y="0" type="line"/>
      <point x="585" y="695" type="line"/>
      <point x="502" y="695" type="line"/>
      <point x="504" y="329" type="line"/>
    </contour>
  </outline>
</glyph>
<glyph name="El-cy" format="2">
  <advance width="641"/>
  <unicode hex="041B"/>
  <guideline x="11" y="60" angle="0"/>
  <outline>
    <contour>
      <point x="42" y="-14" type="curve"/>
      <point x="26" y="54" type="line"/>
      <point x="43" y="57"/>
      <point x="60" y="60"/>
      <point x="71" y="64" type="curve" smooth="yes"/>
      <point x="110" y="78"/>
      <point x="119" y="99"/>
      <point x="127" y="224" type="curve" smooth="yes"/>
      <point x="157" y="695" type="line"/>
      <point x="241" y="695" type="line"/>
      <point x="209" y="223" type="line" smooth="yes"/>
      <point x="203" y="128"/>
      <point x="193" y="61"/>
      <point x="157" y="28" type="curve" smooth="yes"/>
      <point x="128" y="1"/>
      <point x="83" y="-14"/>
    </contour>
    <component base="Ge-cy" xScale="-1" xOffset="641"/>
  </outline>
</glyph>
<glyph name="Sha-cy" format="2">
  <advance width="897"/>
  <unicode hex="0428"/>
  <outline>
    <contour>
      <point x="105" y="0" type="line"/>
      <point x="792" y="0" type="line"/>
      <point x="792" y="695" type="line"/>
      <point x="708" y="695" type="line"/>
      <point x="711" y="36" type="line"/>
      <point x="749" y="74" type="line"/>
      <point x="453" y="74" type="line"/>
      <point x="491" y="36" type="line"/>
      <point x="492" y="695" type="line"/>
      <point x="408" y="695" type="line"/>
      <point x="410" y="36" type="line"/>
      <point x="448" y="74" type="line"/>
      <point x="148" y="74" type="line"/>
      <point x="186" y="36" type="line"/>
      <point x="189" y="695" type="line"/>
      <point x="105" y="695" type="line"/>
    </contour>
  </outline>
</glyph>
<glyph name="de-cy" format="2">
  <advance width="600"/>
  <unicode hex="0434"/>
  <outline>
    <contour>
      <point x="24" y="13" type="line"/>
      <point x="71" y="13"/>
      <point x="106" y="26"/>
      <point x="109" y="28" type="curve" smooth="yes"/>
      <point x="170" y="69"/>
      <point x="183" y="109"/>
      <point x="189" y="178" type="curve" smooth="yes"/>
      <point x="222" y="582" type="line"/>
      <point x="139" y="582" type="line"/>
      <point x="112" y="245" type="line" smooth="yes"/>
      <point x="103" y="132"/>
      <point x="97" y="109"/>
      <point x="77" y="93" type="curve" smooth="yes"/>
      <point x="56" y="76"/>
      <point x="18" y="72"/>
      <point x="3" y="72" type="curve"/>
    </contour>
    <contour>
      <point x="3" y="-104" type="line"/>
      <point x="86" y="-104" type="line"/>
      <point x="86" y="9" type="line"/>
      <point x="48" y="0" type="line"/>
      <point x="527" y="0" type="line"/>
      <point x="489" y="21" type="line"/>
      <point x="489" y="-104" type="line"/>
      <point x="572" y="-104" type="line"/>
      <point x="572" y="72" type="line"/>
      <point x="3" y="72" type="line"/>
    </contour>
    <contour>
      <point x="372" y="43" type="line"/>
      <point x="531" y="43" type="line"/>
      <point x="493" y="28" type="line"/>
      <point x="493" y="582" type="line"/>
      <point x="410" y="582" type="line"/>
      <point x="412" y="281" type="line"/>
      <point x="410" y="28" type="line"/>
    </contour>
    <contour>
      <point x="163" y="510" type="line"/>
      <point x="484" y="510" type="line"/>
      <point x="472" y="475" type="line"/>
      <point x="472" y="582" type="line"/>
      <point x="192" y="582" type="line"/>
      <point x="192" y="476" type="line"/>
    </contour>
  </outline>
</glyph>
<glyph name="hardsign-cy" format="2">
  <advance width="660"/>
  <unicode hex="044A"/>
  <outline>
    <contour>
      <point x="16" y="509" type="line"/>
      <point x="164" y="512" type="line"/>
      <point x="247" y="582" type="line"/>
      <point x="16" y="582" type="line"/>
    </contour>
    <component base="softsign-cy" xOffset="83"/>
  </outline>
</glyph>
<glyph name="yat-cy" format="2">
  <advance width="629"/>
  <unicode hex="0463"/>
  <outline>
    <contour>
      <point x="141" y="1" type="line"/>
      <point x="225" y="0" type="line"/>
      <point x="225" y="354" type="line"/>
      <point x="225" y="753" type="line"/>
      <point x="141" y="753" type="line"/>
      <point x="142" y="260" type="line"/>
    </contour>
    <contour>
      <point x="41" y="614" type="line"/>
      <point x="170" y="616" type="line"/>
      <point x="360" y="614" type="line"/>
      <point x="360" y="679" type="line"/>
      <point x="41" y="679" type="line"/>
    </contour>
    <component base="softsign-cy" xOffset="62"/>
  </outline>
</glyph>
<glyph name="Zhedescender-cy" format="2">
  <advance width="841"/>
  <unicode hex="0496"/>
  <outline>
    <contour>
      <point x="773" y="-124" type="line"/>
      <point x="847" y="-124" type="line"/>
      <point x="847" y="74" type="line"/>
      <point x="750" y="74" type="line"/>
    </contour>
    <component base="Zhe-cy"/>
  </outline>
</glyph>
<glyph name="zhedescender-cy" format="2">
  <advance width="797"/>
  <unicode hex="0497"/>
  <outline>
    <contour>
      <point x="725" y="-136" type="line"/>
      <point x="789" y="-136" type="line"/>
      <point x="789" y="72" type="line"/>
      <point x="701" y="72" type="line"/>
    </contour>
    <component base="zhe-cy"/>
  </outline>
</glyph>
<glyph name="ustraitstroke-cy" format="2">
  <advance width="479"/>
  <unicode hex="04B1"/>
  <outline>
    <contour>
      <point x="43" y="60" type="line"/>
      <point x="235" y="61" type="line"/>
      <point x="427" y="60" type="line"/>
      <point x="427" y="133" type="line"/>
      <point x="43" y="133" type="line"/>
    </contour>
    <contour>
      <point x="193" y="-166" type="line"/>
      <point x="276" y="-166" type="line"/>
      <point x="274" y="96" type="line"/>
      <point x="263" y="29" type="line"/>
      <point x="461" y="582" type="line"/>
      <point x="372" y="582" type="line"/>
      <point x="226" y="120" type="line"/>
      <point x="274" y="157" type="line"/>
      <point x="193" y="157" type="line"/>
      <point x="243" y="120" type="line"/>
      <point x="97" y="582" type="line"/>
      <point x="8" y="582" type="line"/>
      <point x="205" y="32" type="line"/>
      <point x="195" y="96" type="line"/>
    </contour>
  </outline>
</glyph>
<glyph name="Schwa-cy" format="2">
  <advance width="654"/>
  <unicode hex="04D8"/>
  <anchor x="328" y="0" name="bottom"/>
  <anchor x="328" y="348" name="center"/>
  <anchor x="590" y="10" name="ogonek"/>
  <anchor x="328" y="695" name="top"/>
  <anchor x="20" y="695" name="topleft"/>
  <anchor x="636" y="695" name="topright"/>
  <outline>
    <contour>
      <point x="70" y="617" type="curve"/>
      <point x="99" y="546" type="line"/>
      <point x="99" y="546"/>
      <point x="205" y="634"/>
      <point x="351" y="634" type="curve" smooth="yes"/>
      <point x="404" y="634"/>
      <point x="418" y="628"/>
      <point x="437" y="612" type="curve" smooth="yes"/>
      <point x="462" y="590"/>
      <point x="490" y="535"/>
      <point x="494" y="389" type="curve"/>
      <point x="73" y="391" type="line"/>
      <point x="73" y="343" type="line" smooth="yes"/>
      <point x="73" y="45"/>
      <point x="196" y="-14"/>
      <point x="328" y="-14" type="curve" smooth="yes"/>
      <point x="468" y="-14"/>
      <point x="584" y="55"/>
      <point x="584" y="349" type="curve" smooth="yes"/>
      <point x="584" y="614"/>
      <point x="491" y="710"/>
      <point x="333" y="710" type="curve" smooth="yes"/>
      <point x="186" y="710"/>
      <point x="70" y="617"/>
    </contour>
    <contour>
      <point x="161" y="317" type="curve"/>
      <point x="495" y="318" type="line"/>
      <point x="490" y="92"/>
      <point x="438" y="62"/>
      <point x="328" y="62" type="curve" smooth="yes"/>
      <point x="219" y="62"/>
      <point x="168" y="91"/>
    </contour>
  </outline>
</glyph>
<glyph name="minus" format="2">
  <advance width="600"/>
  <unicode hex="2212"/>
  <outline>
    <contour>
      <point x="52" y="258" type="line"/>
      <point x="567" y="258" type="line"/>
      <point x="567" y="328" type="line"/>
      <point x="52" y="328" type="line"/>
    </contour>
  </outline>
</glyph>
<glyph name="gravecomb.case" format="2">
  <anchor x="126" y="695" name="_top"/>
  <anchor x="126" y="844" name="top"/>
  <outline>
    <contour>
      <point x="235.295" y="733.243" type="line"/>
      <point x="252.65" y="784.221" type="line"/>
      <point x="25.982" y="867.471" type="line"/>
      <point x="-0.47" y="798.993" type="line"/>
    </contour>
  </outline>
</glyph>
